<?xml version="1.0" encoding="UTF-8" standalone="no"?>
<svg width="100px" height="100px" viewBox="0 0 100 100" version="1.1" xmlns="http://www.w3.org/2000/svg" xmlns:xlink="http://www.w3.org/1999/xlink">
    <!-- Generator: Sketch 3.8.3 (29802) - http://www.bohemiancoding.com/sketch -->
    <title>Contact Icon</title>
    <desc>Created with Sketch.</desc>
    <defs></defs>
    <g id="Page-1" stroke="none" stroke-width="1" fill="none" fill-rule="evenodd">
        <g id="Alt" transform="translate(-1191.000000, -912.000000)" fill="#FFFFFF">
            <g id="Contact-Icon-Panel" transform="translate(730.000000, 893.000000)">
                <g id="Contact-Icon" transform="translate(461.000000, 19.000000)">
                    <path d="M32.4418605,5.34883721 C32.2093023,4.65116279 32.5581395,3.8372093 33.255814,3.48837209 C41.8604651,0.348837209 51.1627907,-0.23255814 60.1162791,1.62790698 C69.3023256,3.60465116 77.7906977,8.02325581 84.5348837,14.6511628 C104.069767,33.7209302 104.418605,65 85.3488372,84.5348837 L84.3023256,85.5813953 L90.9302326,85.4651163 L90.9302326,85.4651163 C91.744186,85.4651163 92.3255814,86.0465116 92.3255814,86.8604651 C92.3255814,87.6744186 91.744186,88.255814 90.9302326,88.255814 L80.9302326,88.372093 L80.9302326,88.372093 C80.5813953,88.372093 80.2325581,88.255814 79.8837209,88.0232558 C79.6511628,87.7906977 79.4186047,87.4418605 79.4186047,86.9767442 L79.3023256,76.9767442 C79.3023256,76.1627907 79.8837209,75.5813953 80.6976744,75.5813953 C81.5116279,75.5813953 82.0930233,76.1627907 82.0930233,76.9767442 L82.2093023,83.6046512 L83.255814,82.5581395 C91.9767442,73.6046512 96.627907,61.8604651 96.5116279,49.4186047 C96.3953488,36.9767442 91.5116279,25.3488372 82.5581395,16.627907 C69.6511628,4.06976744 51.1627907,0.11627907 34.1860465,6.1627907 C33.4883721,6.39534884 32.6744186,6.04651163 32.4418605,5.34883721 L32.4418605,5.34883721 Z M15.4651163,85.3488372 C22.2093023,91.9767442 30.6976744,96.5116279 39.8837209,98.372093 C43.255814,99.0697674 46.627907,99.4186047 50,99.4186047 C55.6976744,99.4186047 61.2790698,98.4883721 66.744186,96.5116279 C67.4418605,96.2790698 67.9069767,95.4651163 67.5581395,94.6511628 C67.3255814,93.9534884 66.5116279,93.4883721 65.6976744,93.8372093 C48.8372093,99.8837209 30.3488372,95.9302326 17.4418605,83.372093 C8.48837209,74.6511628 3.60465116,63.0232558 3.37209302,50.5813953 C3.25581395,38.1395349 8.02325581,26.3953488 16.627907,17.4418605 L17.6744186,16.3953488 L17.7906977,23.0232558 C17.7906977,23.8372093 18.4883721,24.4186047 19.1860465,24.4186047 L19.1860465,24.4186047 C20,24.4186047 20.5813953,23.7209302 20.5813953,23.0232558 L20.4651163,13.0232558 C20.4651163,12.2093023 19.7674419,11.627907 19.0697674,11.627907 L19.0697674,11.627907 L8.95348837,11.627907 C8.13953488,11.627907 7.55813953,12.3255814 7.55813953,13.0232558 C7.55813953,13.8372093 8.25581395,14.4186047 8.95348837,14.4186047 L8.95348837,14.4186047 L15.5813953,14.3023256 L14.5348837,15.3488372 C-4.41860465,35 -4.06976744,66.2790698 15.4651163,85.3488372 L15.4651163,85.3488372 Z M29.7674419,66.744186 C21.1627907,56.2790698 21.8604651,40.8139535 31.5116279,31.1627907 C36.5116279,26.1627907 43.1395349,23.372093 50.2325581,23.372093 C57.3255814,23.372093 63.9534884,26.1627907 68.9534884,31.1627907 C79.3023256,41.5116279 79.3023256,58.255814 68.9534884,68.6046512 C63.9534884,73.6046512 57.3255814,76.3953488 50.2325581,76.3953488 C45.8139535,76.3953488 41.5116279,75.3488372 37.6744186,73.255814 C34.7674419,75.2325581 31.3953488,76.3953488 28.1395349,76.3953488 C27.4418605,76.3953488 26.8604651,76.3953488 26.2790698,76.2790698 C25.2325581,76.1627907 24.4186047,75.3488372 24.3023256,74.3023256 C24.1860465,73.255814 24.6511628,72.2093023 25.5813953,71.744186 C27.0930233,70.9302326 28.4883721,69.3023256 29.7674419,66.744186 L29.7674419,66.744186 Z M32.4418605,65.5813953 C32.7906977,66.0465116 32.9069767,66.627907 32.6744186,67.0930233 C31.3953488,70.1162791 29.7674419,72.2093023 27.9069767,73.4883721 L27.9069767,73.4883721 C29.3023256,73.4883721 32.9069767,73.1395349 36.5116279,70.4651163 C36.744186,70.2325581 37.0930233,70.1162791 37.4418605,70.1162791 C37.6744186,70.1162791 37.9069767,70.2325581 38.1395349,70.3488372 C41.744186,72.4418605 45.9302326,73.6046512 50.1162791,73.6046512 C56.3953488,73.6046512 62.3255814,71.1627907 66.8604651,66.627907 C76.0465116,57.4418605 76.0465116,42.4418605 66.8604651,33.255814 C62.4418605,28.8372093 56.5116279,26.2790698 50.1162791,26.2790698 C43.7209302,26.2790698 37.9069767,28.7209302 33.372093,33.255814 C24.6511628,42.0930233 24.1860465,56.2790698 32.4418605,65.5813953 L32.4418605,65.5813953 Z M50.1162791,51.744186 C51.0465116,51.744186 51.8604651,50.9302326 51.8604651,50 C51.8604651,49.0697674 51.0465116,48.255814 50.1162791,48.255814 C49.1860465,48.255814 48.372093,49.0697674 48.372093,50 C48.372093,50.9302326 49.1860465,51.744186 50.1162791,51.744186 L50.1162791,51.744186 Z M56.9767442,51.744186 C57.9069767,51.744186 58.7209302,50.9302326 58.7209302,50 C58.7209302,49.0697674 57.9069767,48.255814 56.9767442,48.255814 C56.0465116,48.255814 55.2325581,49.0697674 55.2325581,50 C55.2325581,50.9302326 56.0465116,51.744186 56.9767442,51.744186 L56.9767442,51.744186 Z M43.255814,51.744186 C44.1860465,51.744186 45,50.9302326 45,50 C45,49.0697674 44.1860465,48.255814 43.255814,48.255814 C42.3255814,48.255814 41.5116279,49.0697674 41.5116279,50 C41.5116279,50.9302326 42.3255814,51.744186 43.255814,51.744186 L43.255814,51.744186 Z" id="Shape"></path>
                </g>
            </g>
        </g>
    </g>
</svg>