<?xml version="1.0" encoding="UTF-8" standalone="no"?>
<svg width="84px" height="123px" viewBox="0 0 84 123" version="1.1" xmlns="http://www.w3.org/2000/svg" xmlns:xlink="http://www.w3.org/1999/xlink">
    <!-- Generator: Sketch 3.8.3 (29802) - http://www.bohemiancoding.com/sketch -->
    <title>crown-symbol</title>
    <desc>Created with Sketch.</desc>
    <defs></defs>
    <g id="Page-1" stroke="none" stroke-width="1" fill="none" fill-rule="evenodd">
        <g id="Alt" transform="translate(-678.000000, 0.000000)">
            <g id="crown-symbol" transform="translate(678.000000, -12.000000)">
                <g id="Crown-Symbol">
                    <g id="Page-1">
                        <polygon id="Fill-1" fill="#EC2226" points="0 0.000559080095 0 134.949915 42.0532711 121.305565 83.7687312 134.949915 83.7687312 0.000559080095"></polygon>
                        <g id="Group-34" transform="translate(18.722210, 28.724836)" fill="#FEFEFE">
                            <path d="M36.6345297,59.3045609 C36.6261542,59.2682207 36.6094033,59.2332782 36.5856728,59.2053241 L36.4083918,58.991476 C36.3679104,58.9425565 36.3106779,58.9132048 36.2478618,58.9062163 L35.9030714,58.8754669 C35.7578964,58.7356969 35.780231,58.61829 35.8472349,58.3261707 C35.8667776,58.2423087 35.8891122,58.1500605 35.908655,58.0480284 C35.9281978,57.9487916 35.9016755,57.839771 35.8165248,57.7894538 C35.7285823,57.7363412 35.6378479,57.7377389 35.5652605,57.8006354 C35.2330332,57.8509526 33.3373835,56.5930224 32.3853709,55.3882048 C31.9372829,54.8193408 31.9875358,54.6096858 32.000099,54.5733456 C32.0280172,54.5062559 32.0224336,54.4293824 31.9861399,54.3678836 C31.9498461,54.3049871 31.88703,54.2616584 31.8144426,54.2518745 C31.1109025,54.1526378 30.5539333,53.6005462 30.0151109,53.0666247 L30.0067354,53.0582385 L29.6884673,50.8582583 C29.6745082,50.7743963 29.6172757,50.7017159 29.5377087,50.6723642 C29.4581417,50.6402171 29.3674073,50.6569895 29.3031953,50.7114998 L28.5591738,51.3348741 C28.5159005,51.2384328 28.4516885,51.1517754 28.3623501,51.0888789 L28.3623501,51.0888789 C27.609953,50.5549574 26.6746914,49.6254867 25.7561807,48.388522 C25.8092254,48.3451933 25.8608742,48.3018646 25.9153148,48.2585359 C26.375966,47.7539661 27.1465099,47.264771 28.0384983,46.6987024 C31.2979548,44.6287084 36.2227354,41.5020529 34.8631163,32.2436866 C34.8547408,32.1863808 34.8226348,32.1346659 34.7751738,32.1025188 C34.7263168,32.0717694 34.6648967,32.0605878 34.611852,32.0745648 C25.5035205,34.3556116 24.4831082,40.0945688 23.8102782,43.8907226 C23.7544417,44.2024098 23.7000011,44.4959268 23.6455605,44.77966 C22.8596615,43.0339324 22.2566272,41.0254372 22.0500321,38.8240593 C21.4916669,36.9315732 20.1320478,33.5924673 17.292761,32.4952726 C15.5325149,31.8145926 13.5489227,32.1346659 11.4006128,33.4457088 C11.2568338,33.5323662 11.1535362,33.6763293 11.1186384,33.8398602 C11.0823447,34.0019935 11.1144507,34.1739106 11.2065809,34.3122829 L14.5483963,39.3174475 C14.648902,39.4670014 14.809432,39.5634427 14.9825252,39.5830105 C15.162598,39.6053737 15.3398789,39.548068 15.4724906,39.4250704 C15.9331419,39.0001695 16.6143474,38.5459169 17.2257572,38.7989007 C17.7994774,39.0337143 18.2350022,39.8499713 18.2922346,40.8507246 C18.5895641,42.2092893 20.4293772,45.5903261 22.435304,48.430453 C22.2398762,48.7505264 21.9955915,49.0258733 21.6619683,49.2369261 C21.4763119,49.1334962 21.2641331,49.111133 21.0547462,49.1963927 C20.881653,49.2704709 20.7643963,49.4200248 20.6987884,49.5947373 C20.6150336,49.6115097 20.5424462,49.6366683 20.4517118,49.6478499 C20.3679571,49.6590315 20.2995573,49.721928 20.2800146,49.8043923 C20.2604718,49.8868567 20.2939737,49.9735141 20.3637693,50.0210359 L20.5647808,50.1566128 L20.3553938,51.3041247 C20.3107246,51.3754074 20.2618677,51.4550763 20.2032393,51.554313 C19.9575587,51.96943 19.791445,52.2252092 19.5527439,52.286708 C19.3489407,52.3398206 19.182827,52.4781929 19.0990723,52.6612916 C19.0334644,52.8010617 19.0167134,52.953411 19.0474235,53.0987718 C19.0195052,53.2008039 18.9329586,53.4300268 18.7389267,53.7920311 C17.228549,53.424436 15.6330206,54.035231 14.7424282,55.3644439 C14.1826671,56.1960755 13.9816557,57.1954312 14.1742917,58.1780145 C14.3641358,59.1536092 14.9211051,59.9936271 15.7419018,60.5457187 C16.3547076,60.9566425 17.0596436,61.169093 17.7827264,61.169093 C18.0325948,61.169093 18.2852551,61.1439344 18.5365194,61.0922195 C19.5122625,60.8923483 20.3567898,60.3220866 20.9151549,59.4862619 C21.7722454,58.2003777 21.7457231,56.5231374 20.8858407,55.2777865 C21.0324116,55.0974831 21.1510642,54.967497 21.2404026,54.8780442 C21.3032187,54.883635 21.3688266,54.8808396 21.4358304,54.8682603 C21.618695,54.8333178 21.7778291,54.7284903 21.8867103,54.5663571 C21.9606936,54.4531433 21.9997792,54.3217595 21.9997792,54.1875803 C21.9997792,54.1777964 21.9983833,54.1638194 21.9969874,54.1498424 C22.0109465,54.0729689 22.0123424,53.9933 22.0011751,53.913631 C21.9648814,53.6732266 22.1379746,53.4188452 22.4548468,52.9911489 C22.5037038,52.925457 22.5511648,52.8597651 22.5972299,52.7954709 L23.5799526,52.1679034 L23.7041888,52.2503678 C23.7376907,52.272731 23.7767763,52.2839126 23.8158618,52.2839126 C23.8605311,52.2839126 23.9052003,52.2685379 23.9428899,52.2391862 C24.0112896,52.1846759 24.037812,52.0924276 24.0084978,52.0099633 C23.9945387,51.9736231 23.9945387,51.941476 23.9833714,51.9065335 C24.1732155,51.7793428 24.2890763,51.5710854 24.2918681,51.3404649 C24.29466,51.1056513 24.1801951,50.88761 23.9833714,50.7562262 C23.9833714,50.7562262 23.9819755,50.7562262 23.9805796,50.7548285 L23.9205553,50.7156929 C23.9400981,50.6332286 23.9694123,50.5535597 23.9973305,50.4738908 C25.0428693,51.7234348 26.0367592,52.6473146 26.7821767,52.8737421 L26.8435969,52.883526 L26.281044,53.4300268 C26.2182279,53.4901279 26.1944974,53.5795807 26.2182279,53.6634427 C26.2405625,53.745907 26.3075663,53.8102012 26.3913211,53.829769 L28.6694509,54.3539066 C29.1817509,54.8766465 29.5558556,55.6342 29.6521735,56.3470272 C29.6633408,56.4197076 29.7052182,56.4826041 29.7680343,56.520342 C29.8322463,56.5566822 29.9104174,56.5636707 29.9760253,56.534319 C30.509264,56.3176755 32.1899431,57.5252885 33.137768,58.7944003 C33.5621255,59.3632643 33.6040029,59.6665652 33.5593337,59.7238709 C33.4965176,59.8007444 33.4909339,59.9083674 33.5411868,59.9936271 C33.5914397,60.0774891 33.6905495,60.1208178 33.7868675,60.1026477 C33.9097078,60.0998523 33.9836912,60.0621144 34.0674459,60.0439443 C34.2740411,59.9964225 34.3954855,59.9740593 34.5001789,60.003411 C34.5015748,60.0145926 34.4973871,60.0243765 34.5001789,60.0341604 L34.7193373,60.8224633 C34.7319005,60.8699851 34.7598187,60.9105184 34.7975084,60.9412678 L34.9845607,61.0964126 C35.0236463,61.1285597 35.0711073,61.1467298 35.1213602,61.1495252 L35.4731302,61.169093 C35.4968607,61.1704907 35.5219872,61.1676953 35.5471136,61.1607068 C35.588991,61.1495252 35.6294724,61.1257643 35.6587866,61.0922195 L36.6805948,59.9810478 C36.7336395,59.9251398 36.7545782,59.8454709 36.7378273,59.769995 L36.6345297,59.3045609 Z" id="Fill-2"></path>
                            <path d="M20.1049671,58.9438144 C19.690381,59.5629956 19.0636161,59.9864988 18.3405332,60.1360527 C17.6216381,60.2828113 16.8915757,60.1402458 16.2857495,59.7349128 C15.6813192,59.328182 15.2709208,58.7090008 15.1313295,57.9891852 C14.9889464,57.2637787 15.1383091,56.5243953 15.5514993,55.9094072 C16.084738,55.1127181 16.9585795,54.6626586 17.8617351,54.6626586 C18.1758155,54.6626586 18.4926877,54.7171689 18.8011845,54.8303826 C18.8318945,54.8415642 18.8640005,54.8415642 18.8961065,54.847155 C18.4759368,55.4914948 17.991555,56.1008921 17.6593277,56.358069 C17.5951157,56.3902161 17.5378833,56.4083862 17.4987978,56.3916138 C17.5085691,56.4125793 17.5141528,56.4265563 17.5239242,56.4461241 C17.4541285,56.4810666 17.3941043,56.5006344 17.350831,56.4824643 C17.6104708,57.0233743 17.5630097,56.9996134 17.0158119,57.453866 L17.5783648,57.8270519 L18.1339381,58.1848632 C18.1590645,58.1135805 18.1786073,58.0548771 18.1981501,57.9975714 L18.2414234,58.0255254 C18.312615,57.8186657 18.3544923,57.6802934 18.3991616,57.5824544 C18.4912918,57.509774 18.6308831,57.5111717 18.9268166,57.5335349 C18.9002943,57.5055809 18.8933147,57.4552637 18.8947106,57.3951626 C18.9268166,57.3965603 18.9561308,57.397958 18.9938204,57.4007534 C18.8919188,57.2973236 19.0147591,56.9353192 19.2492725,56.4866574 C19.4153861,56.1805611 19.6275649,55.8437153 19.8550987,55.5180511 C19.8704537,55.5446075 19.8802251,55.5725615 19.9011638,55.5963224 C20.7107933,56.5313838 20.794548,57.9081186 20.1049671,58.9438144" id="Fill-4"></path>
                            <path d="M28.1430521,45.5476963 C27.1379949,46.327613 26.1803987,47.078178 25.390312,47.8790603 C25.2870144,47.730904 25.1851128,47.5841455 25.0832111,47.4276031 C25.4266057,47.0166792 25.806294,46.6127439 26.2055251,46.2325694 C26.463769,46.0830155 26.6256949,45.9110983 26.7555148,45.7321927 C27.0891379,45.4470619 27.4297407,45.1828965 27.7661557,44.952276 L27.7787189,44.9438898 C28.9554734,44.2590167 29.5640914,43.6258584 30.1531667,43.0150634 C30.4714348,42.6838085 30.7994743,42.3427696 31.2112686,41.9989354 C31.3313171,41.8242228 31.461137,41.6606919 31.6035201,41.4789909 C32.0488163,40.9171154 32.6029938,40.2168676 33.3512031,38.5773652 L33.736475,38.708749 C33.0175799,41.762724 30.5398345,43.6873573 28.1430521,45.5476963" id="Fill-6"></path>
                            <path d="M28.8740917,40.8627448 C29.654407,41.3854847 29.8833367,42.423976 29.3738285,43.1815295 C28.8782795,43.9306969 27.8341366,44.1179887 27.0482377,43.5868626 C26.2693183,43.0655204 26.0348049,42.0284268 26.5345417,41.2666802 C27.0398622,40.5175129 28.0798173,40.3344142 28.8740917,40.8627448" id="Fill-8"></path>
                            <path d="M27.0111064,39.3753123 C27.2372443,38.8302092 27.5806389,38.4877726 27.9198457,38.1984487 L28.2311342,37.9314879 L28.3065135,39.1670549 L27.2861012,39.6394776 L27.0111064,39.3753123 Z" id="Fill-10"></path>
                            <path d="M30.5387178,41.799204 L30.7802107,40.745338 L31.7810803,40.3791406 L32.0281568,40.6726576 C31.7880598,41.0947631 31.4795631,41.5504134 30.8583819,42.0102567 L30.5387178,41.799204 Z" id="Fill-12"></path>
                            <path d="M33.8731349,33.1482782 L34.0713545,33.0965632 L34.1230033,33.2950367 C34.5375894,34.8981989 34.399394,36.2511727 34.062979,37.7886429 L33.6651439,37.7942337 L33.5088016,37.1736548 L33.5213648,37.1233376 C33.6581643,36.6061885 33.7279599,36.1589245 33.7642537,35.7424098 C33.7153967,35.8374534 33.6511847,35.9338947 33.5395117,36.0275406 L33.310582,36.2190256 L33.0286076,35.3818031 L33.5855768,34.9135736 L33.775421,35.0435597 C33.7488986,34.6480105 33.6804989,34.2846084 33.5381158,33.9617397 C33.2338068,34.0120569 32.9281019,34.0959189 32.6251888,34.197951 L32.8527226,34.4383555 L32.4046345,35.0477528 L31.7499514,35.2434308 L31.5252094,34.9289483 C31.7485555,34.613068 32.0333217,34.4523325 32.2887738,34.3125625 C31.8574367,34.4830819 31.4330792,34.7025208 31.0282645,34.9694816 L30.9794075,34.9918448 L30.1013783,35.2825664 L29.9227015,34.9177667 C31.1287702,34.1071005 32.4213855,33.5284526 33.8731349,33.1482782" id="Fill-14"></path>
                            <path d="M31.9664575,36.2007157 C32.823548,36.7779659 33.0441022,37.9729996 32.4424638,38.8647324 C31.8519926,39.7550674 30.659883,40.0206305 29.7916252,39.4391872 C28.9387225,38.8591416 28.7181682,37.6696987 29.3198067,36.7695797 C29.9116737,35.8736538 31.0940119,35.6206701 31.9664575,36.2007157" id="Fill-16"></path>
                            <path d="M24.986614,43.2020757 C25.8157862,40.30045 26.6714808,37.2995876 29.2595033,35.4783842 L29.5247267,35.787276 C28.2879479,37.0829441 27.8398599,37.8544746 27.4811103,38.4750535 C27.3596658,38.6847086 27.2493887,38.8747958 27.1237566,39.0592922 C26.9604348,39.563862 26.7677988,39.9943537 26.5807465,40.4108684 C26.2331642,41.1851943 25.8758105,41.9860765 25.6817786,43.3320619 L25.6789868,43.3474366 C25.5617301,43.8799603 25.387241,44.4390404 25.177854,44.9939274 C25.1694786,45.0065067 25.162499,45.0204837 25.1541235,45.0344607 C24.9754467,45.2455135 24.8163126,45.4873156 24.8037494,45.877274 L24.8205003,45.8618993 C24.7227864,46.0757474 24.6208848,46.2840048 24.5147954,46.4894667 C24.3947469,46.278414 24.2746984,46.0659635 24.1574417,45.8437292 C24.4617507,45.0162906 24.7227864,44.1259556 24.986614,43.2020757" id="Fill-18"></path>
                            <path d="M23.1622954,26.0747968 C11.795377,26.0747968 2.54885012,35.3331632 2.54885012,46.7146362 C2.54885012,58.0947115 11.795377,67.3530779 23.1622954,67.3530779 C34.527818,67.3530779 43.7743448,58.0947115 43.7743448,46.7146362 C43.7743448,35.3331632 34.527818,26.0747968 23.1622954,26.0747968 M23.1622954,68.9017298 C10.9424742,68.9017298 1.00217867,58.9487064 1.00217867,46.7146362 C1.00217867,34.4791683 10.9424742,24.5261449 23.1622954,24.5261449 C35.3807208,24.5261449 45.3210163,34.4791683 45.3210163,46.7146362 C45.3210163,58.9487064 35.3807208,68.9017298 23.1622954,68.9017298" id="Fill-20"></path>
                            <polygon id="Fill-22" points="39.1449394 22.0199286 37.0901557 11.7719905 30.7303766 21.1309913 23.1226515 5.72693695 15.9504512 21.1617407 9.56973348 11.7719905 7.51494974 22.0199286 1.93827784 14.5995381 3.15830568 13.681249 6.68856932 18.3789195 8.78941819 7.90455393 15.6991869 18.0770163 23.0807741 2.19494845 30.9397636 18.106368 37.870471 7.90455393 39.9713198 18.3789195 43.5015835 13.681249 44.7216113 14.5995381"></polygon>
                            <path d="M4.60642569,14.1402538 C4.60642569,15.2779818 3.6851232,16.2004639 2.54885012,16.2004639 C1.41257705,16.2004639 0.491274556,15.2779818 0.491274556,14.1402538 C0.491274556,13.0025258 1.41257705,12.0800436 2.54885012,12.0800436 C3.6851232,12.0800436 4.60642569,13.0025258 4.60642569,14.1402538" id="Fill-24"></path>
                            <path d="M10.846575,7.95738699 C10.846575,9.09511499 9.92527249,10.0175971 8.78899942,10.0175971 C7.65272634,10.0175971 6.73142385,9.09511499 6.73142385,7.95738699 C6.73142385,6.819659 7.65272634,5.89717684 8.78899942,5.89717684 C9.92527249,5.89717684 10.846575,6.819659 10.846575,7.95738699" id="Fill-26"></path>
                            <path d="M25.2194522,2.277273 C25.2194522,3.41500099 24.2981497,4.33748315 23.1618767,4.33748315 C22.0256036,4.33748315 21.1043011,3.41500099 21.1043011,2.277273 C21.1043011,1.139545 22.0256036,0.217062847 23.1618767,0.217062847 C24.2981497,0.217062847 25.2194522,1.139545 25.2194522,2.277273" id="Fill-28"></path>
                            <path d="M39.8977552,7.95738699 C39.8977552,9.09511499 38.9764527,10.0175971 37.8401797,10.0175971 C36.7039066,10.0175971 35.7826041,9.09511499 35.7826041,7.95738699 C35.7826041,6.819659 36.7039066,5.89717684 37.8401797,5.89717684 C38.9764527,5.89717684 39.8977552,6.819659 39.8977552,7.95738699" id="Fill-30"></path>
                            <path d="M45.8324788,14.7024088 C45.8324788,15.8401368 44.9111763,16.762619 43.7749032,16.762619 C42.6386301,16.762619 41.7173276,15.8401368 41.7173276,14.7024088 C41.7173276,13.5646808 42.6386301,12.6421987 43.7749032,12.6421987 C44.9111763,12.6421987 45.8324788,13.5646808 45.8324788,14.7024088" id="Fill-32"></path>
                        </g>
                    </g>
                </g>
            </g>
        </g>
    </g>
</svg>