<?xml version="1.0" encoding="UTF-8" standalone="no"?>
<svg width="73px" height="79px" viewBox="0 0 73 79" version="1.1" xmlns="http://www.w3.org/2000/svg" xmlns:xlink="http://www.w3.org/1999/xlink">
    <!-- Generator: Sketch 3.8.3 (29802) - http://www.bohemiancoding.com/sketch -->
    <title>mail-envelope-open</title>
    <desc>Created with Sketch.</desc>
    <defs></defs>
    <g id="Page-1" stroke="none" stroke-width="1" fill="none" fill-rule="evenodd">
        <g id="Contacts" transform="translate(-684.000000, -1072.000000)" fill="#BDC5D6">
            <path d="M732.583403,1121.5329 L726.108063,1127.31015 L726.398245,1127.30864 L726.398245,1127.30864 L726.34,1127.3603 L716.47476,1127.3603 L721.429115,1127.33451 L721.429115,1127.33451 L714.808932,1127.30293 L708.255426,1121.5329 L732.583403,1121.5329 L732.583403,1121.5329 L732.583403,1121.5329 Z M735.849177,1118.6192 L745.32,1110.1694 L745.32,1086.59363 C745.32,1084.97056 743.99225,1083.6548 742.400116,1083.6548 L698.599884,1083.6548 C696.987276,1083.6548 695.68,1084.94771 695.68,1086.57455 L695.68,1110.46088 L704.946093,1118.6192 L735.849177,1118.6192 L735.849177,1118.6192 L735.849177,1118.6192 Z M710.545455,1080.7411 L720.5,1072 L730.454545,1080.7411 L742.407528,1080.7411 C745.638498,1080.7411 748.24,1083.34961 748.24,1086.56738 L748.24,1096.35853 L757,1104.0507 L757,1144.85981 C757,1148.06356 754.380643,1150.6699 751.149503,1150.6699 L689.850497,1150.6699 C686.598109,1150.6699 684,1148.06864 684,1144.85981 L684,1104.0507 L692.76,1096.35853 L692.76,1086.56738 C692.76,1083.32681 695.371287,1080.7411 698.592472,1080.7411 L710.545455,1080.7411 L710.545455,1080.7411 L710.545455,1080.7411 L710.545455,1080.7411 Z M726.129278,1080.7411 L720.5,1075.78781 L714.870722,1080.7411 L726.129278,1080.7411 L726.129278,1080.7411 L726.129278,1080.7411 L726.129278,1080.7411 Z M748.24,1100.19667 L752.62,1104.0507 L748.24,1107.93564 L748.24,1100.19667 L748.24,1100.19667 L748.24,1100.19667 L748.24,1100.19667 Z M692.76,1107.93564 L688.38,1104.0507 L692.76,1100.19667 L692.76,1107.93564 L692.76,1107.93564 L692.76,1107.93564 L692.76,1107.93564 Z M711.74,1130.274 L691.3,1147.7562 L749.7,1147.7562 L729.26,1130.274 L711.74,1130.274 L711.74,1130.274 L711.74,1130.274 Z M753.160609,1146.95543 L730.72,1127.4101 L754.08,1106.9644 L754.08,1125.90351 L754.08,1144.84262 C754.08,1145.66753 753.726665,1146.42131 753.160609,1146.95543 L753.160609,1146.95543 L753.160609,1146.95543 L753.160609,1146.95543 Z M687.839391,1146.95543 L710.28,1127.4101 L686.92,1106.9644 L686.92,1125.90351 L686.92,1144.84262 C686.92,1145.66753 687.273335,1146.42131 687.839391,1146.95543 L687.839391,1146.95543 L687.839391,1146.95543 L687.839391,1146.95543 Z M701.52,1092.3959 L701.52,1095.3096 L739.48,1095.3096 L739.48,1092.3959 L701.52,1092.3959 L701.52,1092.3959 L701.52,1092.3959 Z M701.52,1101.137 L701.52,1104.0507 L739.48,1104.0507 L739.48,1101.137 L701.52,1101.137 L701.52,1101.137 L701.52,1101.137 Z M701.52,1109.8781 L701.52,1112.7918 L739.48,1112.7918 L739.48,1109.8781 L701.52,1109.8781 L701.52,1109.8781 L701.52,1109.8781 Z" id="mail-envelope-open"></path>
        </g>
    </g>
</svg>