<?xml version="1.0" encoding="UTF-8" standalone="no"?>
<svg width="111px" height="89px" viewBox="0 0 111 89" version="1.1" xmlns="http://www.w3.org/2000/svg" xmlns:xlink="http://www.w3.org/1999/xlink">
    <!-- Generator: Sketch 3.8.3 (29802) - http://www.bohemiancoding.com/sketch -->
    <title>News-Icon</title>
    <desc>Created with Sketch.</desc>
    <defs></defs>
    <g id="Page-1" stroke="none" stroke-width="1" fill="none" fill-rule="evenodd">
        <g id="Alt" transform="translate(-564.000000, -917.000000)" fill="#FFFFFF">
            <g id="News-Icon-Panel" transform="translate(130.000000, 893.000000)">
                <g id="News-Icon" transform="translate(434.000000, 24.000000)">
                    <path d="M91.7502459,0.410838178 L81.9401861,10.2419396 L85.2102045,13.5189731 L95.0292969,3.68787214 L91.7502459,0.410838178 L91.7502459,0.410838178 Z M76.2402344,16.8503218 C76.0758508,16.8540075 75.9123282,16.8752505 75.7524403,16.9136905 L11.0024412,33.1359127 C9.97388418,33.3932948 9.25165137,34.3185421 9.25,35.3809524 L2.3125,35.3809524 C1.03539441,35.3810803 0.000127691406,36.4185677 0,37.6984127 L0,51.6031746 C0.000127691406,52.8830196 1.03539441,53.920507 2.3125,53.9206349 L9.25,53.9206349 C9.24750338,54.9864197 9.97061521,55.9165282 11.0024412,56.1747266 L20.8125,58.6279762 L20.8125,65.5079365 C20.8128916,66.6130695 21.5918282,67.5641971 22.6733401,67.7801322 L45.798341,72.4150528 C46.477361,72.5504818 47.1812103,72.3739311 47.7165038,71.9339089 C48.2517973,71.4938866 48.5622265,70.8366793 48.5625,70.1428571 L48.5625,65.5803571 L75.7524403,72.3969488 C76.4441469,72.5698903 77.1767852,72.4134738 77.7380928,71.9730169 C78.2994004,71.53256 78.626639,70.8572932 78.625,70.1428571 L78.625,59.2616579 C84.2495504,56.5779323 87.8992674,50.8964002 87.875,44.596477 C87.8509824,38.3399043 84.204822,32.713194 78.625,30.0489814 L78.625,19.1587302 C78.6228018,18.5329378 78.3681782,17.9346305 77.919031,17.4998645 C77.4698839,17.0650986 76.8643881,16.8308264 76.2402344,16.8503218 L76.2402344,16.8503218 Z M105.805908,20.0368298 L92.9245611,25.2239595 L94.6499035,29.523933 L107.53125,24.3458599 L105.805908,20.0368298 L105.805908,20.0368298 Z M74,22.1370282 L74,67.1826631 L13.875,52.119171 L13.875,51.6031746 L13.875,37.6984127 L13.875,37.2005203 L74,22.1370282 L74,22.1370282 Z M78.625,35.3990564 C81.4740231,37.5412703 83.235755,40.9137869 83.25,44.605529 C83.2644948,48.3238941 81.4949374,51.7206374 78.625,53.8844269 L78.625,35.3990564 L78.625,35.3990564 Z M4.625,40.015873 L9.25,40.015873 L9.25,49.2857143 L4.625,49.2857143 L4.625,40.015873 L4.625,40.015873 Z M97.125,42.3333333 L97.125,46.968254 L111,46.968254 L111,42.3333333 L97.125,42.3333333 L97.125,42.3333333 Z M25.4375,59.7867063 L43.9375,64.421627 L43.9375,67.3184524 L25.4375,63.615948 L25.4375,59.7867063 L25.4375,59.7867063 Z M94.3066406,60.7553306 L92.4909674,65.0190961 L105.245848,70.4868563 L107.061526,66.2230909 L94.3066406,60.7553306 L94.3066406,60.7553306 Z M85.2102045,75.7916667 L81.9401861,79.0686992 L91.7502459,88.8998016 L95.0292969,85.622769 L85.2102045,75.7916667 L85.2102045,75.7916667 Z" id="Shape"></path>
                </g>
            </g>
        </g>
    </g>
</svg>